<?xml version="1.0" standalone="no"?>
<!DOCTYPE svg PUBLIC "-//W3C//DTD SVG 20010904//EN"
 "http://www.w3.org/TR/2001/REC-SVG-20010904/DTD/svg10.dtd">
<svg version="1.0" xmlns="http://www.w3.org/2000/svg"
 width="1080.000000pt" height="1067.000000pt" viewBox="0 0 1080.000000 1067.000000"
 preserveAspectRatio="xMidYMid meet">

<g transform="translate(0.000000,1067.000000) scale(0.100000,-0.100000)"
fill="#000000" stroke="none">
<path d="M2895 8679 c-93 -11 -174 -38 -335 -116 -208 -99 -233 -106 -370 -99
-63 3 -151 8 -195 12 -59 5 -97 2 -144 -10 -66 -17 -131 -50 -131 -67 0 -15
32 -11 136 17 118 31 231 31 279 0 l30 -19 -25 -8 c-14 -3 -68 -12 -120 -19
-112 -15 -275 -61 -345 -98 -69 -37 -155 -124 -155 -156 0 -36 15 -33 68 15
54 48 140 90 231 114 68 17 253 25 261 11 3 -5 -35 -20 -85 -34 -232 -62 -445
-144 -445 -171 0 -6 8 -27 17 -47 17 -36 18 -36 63 -29 121 18 129 17 56 -10
-38 -13 -71 -27 -74 -30 -6 -5 20 -65 94 -223 31 -64 73 -153 93 -197 91 -195
163 -345 266 -549 l110 -219 42 -12 c211 -62 336 -314 357 -720 l6 -110 113
-240 c139 -293 257 -528 308 -616 36 -62 42 -67 116 -101 169 -78 276 -121
403 -159 41 -13 78 -26 83 -29 4 -4 -4 -94 -18 -200 -24 -183 -31 -279 -20
-269 7 8 63 309 71 383 4 37 10 68 14 71 3 2 42 -2 86 -10 43 -8 124 -14 179
-14 257 -1 446 68 532 193 43 63 44 118 3 252 -41 131 -54 228 -46 345 6 80 4
98 -8 102 -11 4 -16 -5 -21 -34 -6 -33 -14 -44 -48 -66 -23 -14 -67 -42 -97
-63 -150 -101 -267 -147 -354 -136 -104 12 -215 92 -319 229 -15 21 -38 44
-50 52 -12 8 -101 28 -198 44 -248 42 -335 79 -410 174 -55 69 -91 144 -123
254 -45 152 -68 437 -46 553 21 111 37 170 54 195 27 41 36 17 36 -97 0 -54 4
-98 8 -98 15 0 32 73 43 186 6 60 16 115 21 122 27 33 32 12 52 -228 8 -85 18
-168 24 -185 6 -16 18 -56 27 -88 9 -32 18 -57 20 -55 3 2 8 96 14 208 5 115
14 218 21 235 l12 30 8 -25 c5 -14 22 -92 40 -175 38 -182 38 -181 51 -168 7
7 5 51 -6 136 -20 162 -19 223 5 330 23 106 47 161 89 209 41 47 81 65 172 78
150 22 206 57 258 158 28 55 59 184 66 277 4 44 8 86 10 92 11 34 62 -29 144
-179 24 -43 47 -78 51 -78 5 0 20 15 34 33 28 37 34 77 22 150 -8 51 -3 56 30
29 35 -28 288 -564 325 -690 12 -42 12 -43 -25 -81 -20 -20 -41 -54 -47 -75
-11 -41 -13 -36 166 -531 54 -149 87 -257 88 -285 2 -50 5 -48 -79 -35 -33 6
-50 2 -92 -19 -55 -28 -129 -35 -150 -14 -7 7 -12 24 -12 39 0 39 -16 45 -24
9 -13 -66 22 -103 106 -110 32 -3 59 -9 61 -15 1 -5 -65 -37 -148 -70 -227
-92 -307 -139 -342 -197 -29 -49 -88 -197 -81 -203 3 -4 29 18 57 48 60 64
134 102 245 127 210 48 281 64 286 63 3 0 17 8 32 18 36 26 42 65 24 137 -22
84 -21 89 22 103 20 7 54 23 74 35 55 35 59 74 20 189 -17 49 -62 182 -100
295 -39 113 -73 230 -77 260 -8 71 9 148 42 182 21 22 24 32 18 60 -15 65
-109 282 -274 630 -57 121 -55 146 23 247 25 32 60 86 79 122 35 63 82 198 73
207 -3 2 -47 -14 -98 -36 -122 -53 -207 -77 -221 -63 -12 12 -8 13 63 32 55
14 120 46 120 59 0 6 -41 10 -97 10 -125 0 -195 17 -258 62 -80 57 -128 77
-272 114 -75 19 -148 41 -162 49 -25 14 -24 14 29 14 69 1 163 -24 313 -83
132 -51 148 -55 122 -26 -22 24 -160 93 -230 114 -118 36 -325 64 -515 69
l-85 2 60 19 c102 32 269 22 450 -28 75 -21 132 -29 120 -18 -14 14 -253 90
-343 109 -86 18 -306 23 -437 10 -69 -7 -78 -6 -65 6 25 24 109 47 213 58 107
12 270 1 405 -27 96 -20 120 -15 62 12 -120 56 -407 86 -605 63z m-500 -1155
c24 -15 25 -21 25 -114 l0 -97 -49 1 c-92 2 -109 52 -36 112 25 20 45 43 45
51 0 22 -31 29 -45 10 -15 -21 -44 -22 -41 -2 3 22 37 55 58 55 10 0 30 -7 43
-16z"/>
<path d="M2346 7401 c-22 -24 -13 -64 12 -59 12 2 18 15 20 41 4 41 -6 47 -32
18z"/>
<path d="M1040 8606 c0 -171 118 -583 400 -1391 116 -332 342 -939 577 -1545
301 -779 296 -766 333 -762 15 2 34 -6 48 -18 20 -19 22 -30 22 -130 l0 -109
56 -138 c141 -347 154 -365 296 -383 87 -11 191 -60 269 -128 143 -123 387
-415 493 -590 105 -173 137 -290 117 -430 -7 -48 -17 -121 -23 -162 -13 -94
-4 -266 17 -345 23 -88 96 -231 156 -305 180 -225 440 -329 694 -275 88 19 94
19 102 -2 14 -40 99 -182 142 -238 128 -169 323 -325 407 -325 42 0 84 38 115
104 56 119 41 141 -131 191 -216 63 -287 116 -361 269 -22 44 -39 85 -39 91 0
5 16 33 36 60 46 64 90 151 116 229 17 48 21 87 21 181 1 144 -15 212 -78 340
-78 158 -192 275 -345 354 -95 49 -138 63 -335 106 -178 40 -299 92 -347 148
-14 18 -42 50 -63 72 -180 198 -361 516 -843 1480 -187 375 -357 723 -587
1200 -35 72 -96 200 -138 285 -41 85 -96 200 -122 255 -280 587 -448 933 -660
1360 -307 618 -345 678 -345 551z m432 -1151 c9 -20 9 -20 -6 -1 -9 11 -16 27
-15 35 0 14 1 14 6 1 3 -8 10 -24 15 -35z m157 -385 c67 -168 126 -314 131
-325 5 -11 32 -78 60 -150 29 -71 95 -236 147 -365 53 -129 106 -262 119 -295
27 -71 260 -651 274 -680 5 -11 61 -149 124 -307 64 -157 121 -297 127 -311
l11 -25 48 30 c56 35 141 47 208 29 84 -23 37 -54 -70 -45 -57 5 -81 3 -105
-9 -29 -15 -76 -64 -99 -103 -7 -10 -15 -16 -19 -12 -4 3 -62 154 -130 335
-113 303 -164 438 -215 568 -10 28 -49 129 -85 225 -36 96 -72 191 -80 210 -8
19 -42 109 -76 200 -71 192 -107 286 -147 390 -16 41 -75 197 -131 345 -57
149 -132 345 -167 437 -35 92 -64 171 -64 175 0 25 31 -46 139 -317z m1264
-2527 c64 -32 85 -123 45 -194 -37 -66 -129 -90 -195 -49 -82 50 -94 157 -24
224 48 46 108 53 174 19z m1342 -1488 c107 -28 183 -73 275 -165 99 -98 148
-184 181 -319 41 -163 13 -343 -68 -432 -150 -166 -486 -77 -676 179 -168 228
-182 548 -30 681 74 66 196 87 318 56z"/>
<path d="M5281 7739 c-151 -13 -346 -62 -516 -132 -148 -60 -415 -216 -415
-242 0 -8 15 -46 34 -87 76 -164 126 -305 126 -353 0 -16 -12 -48 -26 -69 -23
-33 -26 -48 -26 -120 0 -97 19 -183 68 -309 20 -50 54 -137 76 -192 52 -133
61 -224 26 -275 -13 -19 -44 -48 -70 -65 l-47 -30 6 -77 c5 -66 3 -81 -15
-110 -20 -33 -20 -33 -2 -143 11 -60 30 -205 44 -321 20 -166 23 -220 14 -250
-37 -137 -162 -241 -353 -295 -70 -20 -105 -23 -285 -24 l-205 -1 -7 -40 c-3
-21 -19 -108 -33 -191 -24 -134 -27 -170 -22 -295 5 -152 21 -217 79 -333 41
-81 115 -174 152 -192 19 -9 40 -27 47 -40 30 -56 210 -148 371 -189 178 -46
396 -166 488 -270 216 -244 303 -558 231 -833 -10 -39 -15 -71 -10 -71 11 0
52 55 80 110 21 38 24 58 23 138 -1 50 0 92 2 92 1 0 16 -21 32 -47 30 -49
138 -163 181 -191 13 -9 42 -18 65 -22 35 -4 43 -10 58 -42 16 -34 37 -46 320
-187 331 -164 437 -232 526 -339 94 -114 139 -237 149 -408 6 -113 -5 -178
-45 -262 -24 -48 -93 -125 -151 -165 -72 -49 57 -25 176 34 161 79 301 232
366 399 36 92 51 227 38 325 -22 153 -40 202 -135 367 -21 36 -24 49 -14 52 7
2 50 11 96 19 45 9 108 29 139 44 82 40 166 122 204 198 l31 63 58 7 c113 13
495 41 511 37 43 -10 75 -159 59 -274 -13 -92 -25 -130 -61 -194 -73 -129
-213 -198 -350 -174 -92 16 -162 52 -222 112 -104 104 -99 206 13 263 91 46
207 28 274 -44 29 -31 76 -43 76 -19 0 19 -100 108 -139 124 -75 32 -134 38
-197 19 -70 -20 -115 -52 -151 -107 -38 -56 -39 -151 -3 -223 33 -65 137 -175
198 -208 188 -102 409 -61 577 107 97 97 152 196 111 196 -23 0 -56 50 -56 85
0 35 33 92 64 109 41 23 56 41 56 68 0 37 -36 39 -50 3 -7 -18 -17 -25 -35
-25 -34 0 -40 21 -20 64 14 30 24 37 56 42 38 6 38 7 41 57 l3 51 170 23 c198
26 188 29 231 -75 34 -83 33 -81 49 -59 12 16 10 29 -13 92 -15 41 -24 77 -20
80 9 10 233 54 388 76 429 63 852 -54 963 -265 28 -55 28 -146 0 -201 -65
-125 -236 -186 -430 -153 -110 19 -178 49 -204 92 -51 84 12 208 123 241 40
12 56 12 99 1 60 -16 79 -32 88 -77 4 -20 14 -35 24 -37 13 -3 17 4 17 33 0
46 -23 80 -75 111 -115 67 -264 24 -342 -99 -37 -59 -44 -157 -14 -215 51
-100 237 -182 411 -182 244 0 455 161 490 373 38 238 -172 455 -551 566 -281
82 -444 87 -874 25 -93 -13 -188 -26 -211 -29 -38 -5 -43 -3 -86 43 -55 58
-78 100 -78 140 0 26 6 32 50 51 150 65 399 133 550 152 176 21 411 -7 700
-85 52 -14 102 -26 110 -26 29 1 -113 82 -184 106 -177 61 -246 69 -576 69
-249 -1 -339 -5 -490 -22 -321 -38 -318 -38 -342 -17 -30 27 -108 131 -108
143 0 7 28 11 73 11 94 0 247 23 381 55 285 70 473 190 553 353 25 50 28 68
28 152 0 88 -3 101 -33 162 -82 167 -297 278 -486 250 -136 -19 -255 -81 -310
-160 -27 -38 -30 -51 -30 -115 -1 -84 29 -152 94 -217 60 -60 145 -94 179 -71
16 10 6 31 -15 31 -8 0 -32 9 -53 20 -107 54 -167 211 -109 286 32 41 46 52
108 82 48 23 67 26 150 26 117 -1 187 -25 259 -90 186 -167 79 -376 -239 -471
-88 -26 -107 -28 -255 -27 -145 2 -170 4 -265 31 -260 74 -413 169 -642 397
-176 174 -239 324 -208 489 10 53 22 78 66 137 31 40 68 99 85 131 l29 59 94
0 c159 0 304 44 378 114 37 35 82 104 96 145 15 42 15 153 2 206 -22 82 -87
179 -144 214 -51 32 -54 25 -9 -21 55 -56 93 -144 100 -229 15 -174 -121 -282
-354 -284 -51 0 -96 5 -102 10 -6 6 -6 59 1 145 25 336 -9 493 -211 973 -41
96 -74 213 -66 227 3 4 17 10 33 13 15 3 50 21 77 39 109 73 140 237 58 310
-26 24 -87 48 -120 47 -25 0 -21 -3 25 -26 60 -29 82 -62 82 -123 0 -71 -33
-110 -114 -135 -78 -24 -84 -22 -91 33 -18 130 -69 363 -97 440 -105 298 -280
489 -583 633 -204 97 -423 153 -645 164 -69 3 -145 7 -170 9 -25 2 -92 -1
-149 -5z m151 -216 c15 -13 18 -32 18 -113 l0 -97 -47 1 c-60 2 -73 10 -73 47
0 28 13 46 64 87 9 7 16 22 16 32 0 23 -28 27 -36 5 -9 -22 -44 -19 -44 4 0
21 23 45 33 34 4 -3 7 -1 7 5 0 18 41 14 62 -5z m263 -653 c119 -75 201 -97
416 -108 117 -7 139 -11 166 -30 74 -52 116 -218 117 -462 1 -165 -14 -242
-69 -351 -97 -192 -62 -373 164 -849 19 -41 31 -81 31 -107 0 -36 -5 -46 -32
-66 -34 -25 -104 -51 -169 -61 -71 -12 -87 -61 -64 -204 10 -64 -2 -90 -51
-117 -37 -20 -41 -30 -19 -59 32 -43 12 -102 -46 -137 -99 -60 -115 -75 -132
-129 -9 -29 -17 -73 -17 -99 0 -69 -17 -118 -53 -153 -73 -70 -155 -76 -318
-22 -60 20 -113 34 -117 30 -4 -4 -8 -41 -10 -81 -13 -242 106 -469 407 -780
164 -170 207 -218 181 -205 -14 7 -27 16 -30 19 -10 12 -146 109 -230 164
-218 141 -504 251 -717 274 -63 7 -68 10 -71 34 -2 14 8 72 22 130 13 57 27
123 31 146 4 29 13 44 25 48 11 3 53 28 95 55 77 51 97 78 49 66 -64 -17 -85
-17 -121 -5 -80 26 -133 90 -172 209 -24 75 -41 220 -32 275 5 35 7 36 20 21
24 -29 68 -46 117 -46 57 0 142 25 175 52 l24 20 -25 -7 c-95 -25 -100 -25
-138 -10 -24 10 -48 30 -64 56 -28 43 -58 153 -58 212 0 43 -6 48 -36 35 -22
-10 -29 -8 -52 15 -49 49 -30 130 41 172 21 12 27 24 27 50 0 42 -17 55 -26
20 -6 -26 -35 -34 -62 -17 -26 17 28 101 66 102 18 0 15 36 -12 143 -29 114
-70 202 -131 286 -25 34 -45 64 -45 68 0 4 19 26 42 50 23 23 39 45 37 48 -3
3 -34 8 -69 12 l-62 6 133 68 c74 37 152 83 174 102 22 18 58 38 81 45 114 33
238 153 309 297 84 172 123 365 132 653 l6 172 41 0 c33 0 59 -11 121 -50z
m936 -372 c39 -26 85 -105 98 -166 20 -95 13 -289 -19 -530 -45 -347 -53 -454
-40 -574 17 -173 50 -271 133 -395 61 -92 66 -87 42 40 -8 43 -15 97 -15 119
l0 41 43 -37 c73 -62 170 -124 215 -136 50 -13 50 -13 -3 -125 -33 -70 -120
-196 -141 -202 -11 -4 -42 71 -62 147 -6 19 -29 56 -53 81 -181 191 -238 503
-189 1019 13 129 24 307 24 395 1 189 -12 250 -68 304 -53 51 -29 64 35 19z
m321 -295 c15 -13 18 -32 18 -111 l0 -94 -27 5 c-16 2 -37 1 -48 -3 -29 -11
-45 7 -45 49 0 30 7 41 40 65 42 32 53 66 21 66 -10 0 -21 -7 -25 -15 -7 -20
-36 -8 -36 16 0 37 69 52 102 22z m117 -505 c11 -29 25 -73 30 -98 25 -115 62
-375 68 -474 l6 -108 -24 7 c-38 11 -95 52 -125 88 -64 81 -102 237 -90 375
11 121 65 262 100 262 7 0 23 -24 35 -52z m-2329 -921 c0 -2 -35 -31 -79 -65
-94 -73 -166 -165 -226 -288 -75 -154 -90 -223 -90 -414 0 -177 -3 -163 63
-292 2 -5 -1 -8 -7 -8 -21 0 -91 103 -107 158 -52 178 -26 389 73 592 62 126
162 230 273 283 67 32 100 43 100 34z m2210 -1207 c17 -17 20 -33 20 -108 0
-49 -3 -92 -6 -95 -4 -3 -15 -2 -25 4 -13 6 -25 6 -38 -3 -26 -16 -51 5 -51
42 0 42 9 58 46 81 37 23 47 59 15 59 -10 0 -21 -7 -25 -15 -6 -16 -36 -10
-36 8 0 20 33 47 57 47 12 0 32 -9 43 -20z m245 -156 c158 -42 229 -56 332
-63 129 -10 135 -13 226 -118 38 -45 54 -70 47 -77 -15 -15 -247 -20 -312 -7
-121 25 -263 119 -340 225 -45 62 -42 64 47 40z m851 -526 c59 -62 84 -98 84
-121 0 -19 -4 -20 -111 -14 -103 6 -241 36 -263 57 -12 11 199 116 239 119 6
1 29 -18 51 -41z"/>
<path d="M5380 7406 c-15 -20 -9 -61 10 -61 10 0 16 12 18 38 3 39 -7 47 -28
23z"/>
<path d="M5625 6126 c-22 -7 -53 -20 -70 -30 -16 -9 -21 -14 -10 -11 47 15
153 35 191 35 54 0 166 -35 217 -67 22 -14 71 -54 109 -90 38 -35 74 -63 81
-60 7 2 13 15 15 29 3 21 -4 28 -34 43 -21 10 -58 32 -83 50 -133 94 -305 136
-416 101z"/>
<path d="M5912 5792 c-9 -41 -22 -73 -40 -94 -24 -26 -35 -30 -79 -30 -60 0
-104 13 -195 58 -99 50 -118 44 -77 -22 43 -70 195 -174 253 -174 20 0 20 1
-4 20 l-25 20 25 -1 c14 0 52 -6 85 -14 33 -8 71 -15 84 -15 24 0 24 1 6 14
-18 13 -18 14 1 19 10 3 39 9 64 12 56 9 64 13 50 30 -8 9 -3 15 20 25 35 14
41 35 8 26 -64 -17 -94 -17 -125 3 -32 20 -32 22 -35 103 l-3 83 -13 -63z"/>
<path d="M4939 4746 c-9 -19 -10 -33 -3 -43 16 -26 29 -20 32 16 5 46 -13 62
-29 27z"/>
<path d="M6902 6088 c-20 -20 -15 -58 8 -58 16 0 20 7 20 35 0 37 -8 43 -28
23z"/>
<path d="M6902 3458 c-20 -20 -15 -58 8 -58 16 0 20 7 20 35 0 37 -8 43 -28
23z"/>
<path d="M2346 4861 c-9 -14 5 -42 18 -38 15 5 14 39 -1 44 -6 2 -14 0 -17 -6z"/>
<path d="M2422 4353 c-22 -37 -70 -131 -107 -208 -239 -499 -338 -673 -427
-749 -59 -51 -132 -83 -241 -107 -50 -11 -125 -27 -165 -35 -293 -63 -506
-276 -577 -575 -19 -84 -19 -254 0 -330 48 -183 177 -333 343 -398 167 -66
360 -39 532 75 36 23 111 90 166 148 l101 105 41 -11 c65 -16 88 -6 106 49 24
71 21 94 -19 128 -43 36 -49 66 -65 325 -5 96 -16 212 -22 257 -13 93 -1 196
33 288 22 59 147 270 248 419 94 137 159 197 269 248 94 43 142 74 142 89 0 6
-12 8 -29 4 -34 -7 -105 10 -138 33 -35 26 -78 107 -109 207 -15 50 -30 94
-34 98 -4 4 -25 -23 -48 -60z m-639 -1245 c150 -65 222 -306 162 -543 -49
-194 -191 -362 -369 -438 -59 -26 -84 -31 -151 -31 -67 0 -90 4 -142 28 -98
45 -168 132 -199 251 -19 70 -17 137 6 230 59 234 210 416 412 496 107 43 192
45 281 7z"/>
<path d="M7936 2139 c-27 -39 -16 -111 12 -76 15 18 23 70 13 86 -7 10 -12 8
-25 -10z"/>
<path d="M8427 1970 c-16 -38 -32 -110 -24 -110 2 0 15 27 27 59 24 66 22 108
-3 51z"/>
</g>
</svg>
